<svg id="visual" viewBox="0 0 960 540" width="960" height="540" xmlns="http://www.w3.org/2000/svg" xmlns:xlink="http://www.w3.org/1999/xlink" version="1.1"><path d="M428 0L418.2 15C408.3 30 388.7 60 389 90C389.3 120 409.7 150 408.7 180C407.7 210 385.3 240 385.8 270C386.3 300 409.7 330 415.5 360C421.3 390 409.7 420 413.2 450C416.7 480 435.3 510 444.7 525L454 540L0 540L0 525C0 510 0 480 0 450C0 420 0 390 0 360C0 330 0 300 0 270C0 240 0 210 0 180C0 150 0 120 0 90C0 60 0 30 0 15L0 0Z" fill="#f39c99"></path><path d="M258 0L266.7 15C275.3 30 292.7 60 290.8 90C289 120 268 150 262.2 180C256.3 210 265.7 240 268.2 270C270.7 300 266.3 330 261.5 360C256.7 390 251.3 420 263.5 450C275.7 480 305.3 510 320.2 525L335 540L0 540L0 525C0 510 0 480 0 450C0 420 0 390 0 360C0 330 0 300 0 270C0 240 0 210 0 180C0 150 0 120 0 90C0 60 0 30 0 15L0 0Z" fill="#d3635f"></path><path d="M214 0L200 15C186 30 158 60 155.2 90C152.3 120 174.7 150 185 180C195.3 210 193.7 240 175 270C156.3 300 120.7 330 106.5 360C92.3 390 99.7 420 98.5 450C97.3 480 87.7 510 82.8 525L78 540L0 540L0 525C0 510 0 480 0 450C0 420 0 390 0 360C0 330 0 300 0 270C0 240 0 210 0 180C0 150 0 120 0 90C0 60 0 30 0 15L0 0Z" fill="#ae2328"></path></svg>